<svg width="24" height="24" viewBox="0 0 24 24" fill="none" xmlns="http://www.w3.org/2000/svg">
<g clip-path="url(#clip0_2210_36859)">
<path d="M14.8 13.8V17.25H5.6V9.2C5.6 6.6585 7.6585 4.6 10.2 4.6C11.1775 4.6 12.086 4.899 12.822 5.428L14.4665 3.7835C13.7176 3.19055 12.8513 2.76331 11.925 2.53V1.725C11.925 0.7705 11.1545 0 10.2 0C9.2455 0 8.475 0.7705 8.475 1.725V2.53C5.4965 3.289 3.3 5.9915 3.3 9.2V17.25H1V19.55H19.4V17.25H17.1V13.8H14.8ZM10.2 23C11.465 23 12.5 21.965 12.5 20.7H7.9C7.9 21.965 8.935 23 10.2 23Z" fill="#3D0330"/>
<path d="M10 10.2219V6.77806L16.5657 6.77806V4L23 8.5L16.5657 13V10.2219L10 10.2219Z" fill="#3D0330"/>
</g>
<defs>
<clipPath id="clip0_2210_36859">
<rect width="24" height="24" fill="white"/>
</clipPath>
</defs>
</svg>
