<svg width="23" height="23" viewBox="0 0 23 23" fill="none" xmlns="http://www.w3.org/2000/svg">
<g clip-path="url(#clip0_781_3133)">
<path d="M9.37894 9.462C8.52448 9.462 7.68921 9.20854 6.97884 8.73369C6.26846 8.25884 5.7149 7.58394 5.3882 6.7944C5.06151 6.00485 4.97635 5.13614 5.14352 4.29818C5.31068 3.46023 5.72265 2.69069 6.3273 2.08693C6.93194 1.48318 7.70209 1.07235 8.54029 0.906429C9.3785 0.740506 10.2471 0.826947 11.0361 1.15481C11.8252 1.48268 12.4993 2.03724 12.9731 2.74831C13.4469 3.45939 13.6991 4.29503 13.6978 5.1495C13.6945 6.29331 13.2381 7.38922 12.4287 8.19742C11.6193 9.00562 10.5228 9.46031 9.37894 9.462ZM9.37894 2.10839C8.77747 2.10839 8.1895 2.28675 7.68939 2.62091C7.18929 2.95507 6.7995 3.43003 6.56932 3.98572C6.33915 4.54141 6.27893 5.15287 6.39627 5.74279C6.51361 6.33271 6.80325 6.87458 7.22855 7.29989C7.65386 7.7252 8.19574 8.01483 8.78565 8.13218C9.37557 8.24952 9.98704 8.18929 10.5427 7.95912C11.0984 7.72894 11.5734 7.33916 11.9075 6.83905C12.2417 6.33894 12.4201 5.75097 12.4201 5.1495C12.4201 4.34295 12.0997 3.56943 11.5293 2.99911C10.959 2.42879 10.1855 2.10839 9.37894 2.10839Z" fill="#31032A"/>
<path d="M10.4906 20.2401C10.351 20.1004 10.2433 19.9321 10.1749 19.7468C10.1065 19.5615 10.0791 19.3636 10.0945 19.1667H2.55561V15.4739C3.46149 14.5073 4.56026 13.7417 5.78078 13.2267C7.0013 12.7116 8.31638 12.4586 9.64089 12.4839H10.1009C10.0716 12.2697 10.092 12.0517 10.1607 11.8467C10.2295 11.6417 10.3445 11.4553 10.497 11.302L10.5737 11.2317C10.2734 11.2317 9.93478 11.1934 9.64089 11.1934C8.08226 11.1564 6.53488 11.4662 5.11064 12.1004C3.6864 12.7346 2.42089 13.6774 1.40561 14.8606C1.32267 14.9712 1.27783 15.1057 1.27783 15.2439V19.1667C1.27783 19.5056 1.41245 19.8306 1.65208 20.0703C1.89171 20.3099 2.21672 20.4445 2.55561 20.4445H10.6695L10.4906 20.2401Z" fill="#31032A"/>
<path d="M17.167 10.4075C17.1986 10.401 17.2312 10.401 17.2628 10.4075C17.2311 10.4017 17.1987 10.4017 17.167 10.4075Z" fill="#31032A"/>
<path d="M21.5178 14.8989L20.2401 14.5092C20.1487 14.1966 20.0245 13.8947 19.8695 13.6083L20.5084 12.42C20.5292 12.3725 20.5342 12.3195 20.5227 12.2689C20.5112 12.2184 20.4838 12.1728 20.4445 12.1389L19.5181 11.2125C19.4831 11.1746 19.4363 11.1495 19.3853 11.1414C19.3343 11.1333 19.2821 11.1426 19.237 11.1678L18.0614 11.8067C17.772 11.6439 17.4656 11.5133 17.1478 11.417L16.7581 10.1392C16.7416 10.0921 16.7102 10.0518 16.6687 10.0241C16.6272 9.99645 16.5779 9.98302 16.5281 9.98584H15.2184C15.1681 9.98526 15.119 10.0012 15.0786 10.0312C15.0382 10.0612 15.0088 10.1036 14.9948 10.152L14.6051 11.4297C14.2851 11.5228 13.9765 11.6514 13.6851 11.8131L12.5223 11.1742C12.4782 11.1495 12.427 11.1405 12.3771 11.1486C12.3272 11.1567 12.2816 11.1815 12.2476 11.2189L11.302 12.1389C11.2669 12.1758 11.2444 12.2228 11.2375 12.2733C11.2306 12.3237 11.2398 12.3751 11.2637 12.42L11.9026 13.5828C11.7336 13.8708 11.5985 14.1773 11.5001 14.4964L10.2223 14.8797C10.1739 14.8937 10.1315 14.9231 10.1015 14.9635C10.0715 15.0039 10.0556 15.053 10.0562 15.1033V16.4131C10.0599 16.4592 10.078 16.5031 10.1077 16.5385C10.1375 16.574 10.1775 16.5994 10.2223 16.6111L11.5001 17.0008C11.5945 17.3142 11.723 17.6163 11.8834 17.9017L11.2445 19.122C11.2201 19.1657 11.2107 19.2162 11.2176 19.2657C11.2245 19.3153 11.2474 19.3613 11.2828 19.3967L12.2092 20.3231C12.2454 20.3592 12.2921 20.3829 12.3425 20.3909C12.393 20.399 12.4447 20.3909 12.4903 20.3678L13.6851 19.7289C13.9694 19.8818 14.2692 20.0039 14.5795 20.0931L14.9628 21.3708C14.9786 21.4181 15.0084 21.4594 15.0484 21.4892C15.0885 21.5189 15.1366 21.5356 15.1864 21.537H16.4962C16.5462 21.5365 16.5949 21.5202 16.635 21.4903C16.6752 21.4605 16.7049 21.4186 16.7198 21.3708L17.1095 20.0611C17.4157 19.9719 17.7113 19.8498 17.9912 19.697L19.1987 20.3358C19.2431 20.3594 19.2939 20.3678 19.3436 20.3598C19.3932 20.3517 19.4388 20.3276 19.4734 20.2911L20.4445 19.4222C20.4706 19.3847 20.4846 19.3401 20.4846 19.2945C20.4846 19.2488 20.4706 19.2042 20.4445 19.1667L19.8056 17.9656C19.9607 17.6837 20.0849 17.386 20.1762 17.0775L21.4539 16.6878C21.5023 16.6738 21.5447 16.6444 21.5747 16.604C21.6047 16.5636 21.6206 16.5145 21.6201 16.4642V15.1225C21.6259 15.0794 21.6194 15.0355 21.6013 14.9959C21.5832 14.9563 21.5543 14.9227 21.5178 14.8989ZM15.8764 17.8889C15.4539 17.8902 15.0404 17.7659 14.6885 17.5319C14.3366 17.2979 14.0621 16.9647 13.8998 16.5746C13.7375 16.1844 13.6947 15.7548 13.7769 15.3403C13.859 14.9258 14.0624 14.5449 14.3612 14.2461C14.66 13.9473 15.0408 13.744 15.4553 13.6618C15.8699 13.5797 16.2994 13.6225 16.6896 13.7848C17.0798 13.9471 17.413 14.2216 17.647 14.5735C17.881 14.9254 18.0052 15.3388 18.0039 15.7614C18.0023 16.3251 17.7776 16.8653 17.379 17.2639C16.9803 17.6625 16.4402 17.8872 15.8764 17.8889Z" fill="#31032A"/>
</g>
<defs>
<clipPath id="clip0_781_3133">
<rect width="23" height="23" fill="white"/>
</clipPath>
</defs>
</svg>
