<svg width="29" height="29" viewBox="0 0 29 29" fill="none" xmlns="http://www.w3.org/2000/svg">
<path fill-rule="evenodd" clip-rule="evenodd" d="M9.0625 20.8438C9.0625 20.6034 9.15798 20.3729 9.32793 20.2029C9.49789 20.033 9.7284 19.9375 9.96875 19.9375H26.2812C26.5216 19.9375 26.7521 20.033 26.9221 20.2029C27.092 20.3729 27.1875 20.6034 27.1875 20.8438C27.1875 21.0841 27.092 21.3146 26.9221 21.4846C26.7521 21.6545 26.5216 21.75 26.2812 21.75H9.96875C9.7284 21.75 9.49789 21.6545 9.32793 21.4846C9.15798 21.3146 9.0625 21.0841 9.0625 20.8438ZM9.0625 13.5938C9.0625 13.3534 9.15798 13.1229 9.32793 12.9529C9.49789 12.783 9.7284 12.6875 9.96875 12.6875H26.2812C26.5216 12.6875 26.7521 12.783 26.9221 12.9529C27.092 13.1229 27.1875 13.3534 27.1875 13.5938C27.1875 13.8341 27.092 14.0646 26.9221 14.2346C26.7521 14.4045 26.5216 14.5 26.2812 14.5H9.96875C9.7284 14.5 9.49789 14.4045 9.32793 14.2346C9.15798 14.0646 9.0625 13.8341 9.0625 13.5938ZM9.0625 6.34375C9.0625 6.1034 9.15798 5.87289 9.32793 5.70293C9.49789 5.53298 9.7284 5.4375 9.96875 5.4375H26.2812C26.5216 5.4375 26.7521 5.53298 26.9221 5.70293C27.092 5.87289 27.1875 6.1034 27.1875 6.34375C27.1875 6.5841 27.092 6.81461 26.9221 6.98457C26.7521 7.15452 26.5216 7.25 26.2812 7.25H9.96875C9.7284 7.25 9.49789 7.15452 9.32793 6.98457C9.15798 6.81461 9.0625 6.5841 9.0625 6.34375Z" fill="#A12C81"/>
<path d="M4.06359 3.97657C4.09443 3.87663 4.15647 3.78919 4.24063 3.72709C4.32478 3.66498 4.42662 3.63147 4.53122 3.63147C4.63581 3.63147 4.73765 3.66498 4.8218 3.72709C4.90596 3.78919 4.96801 3.87663 4.99884 3.97657L5.29247 4.9372C5.3559 5.14563 5.54622 5.28882 5.76009 5.28882H6.75878C7.22822 5.28882 7.4294 5.89238 7.05603 6.18238L6.20778 6.84032C6.12762 6.90301 6.0684 6.98858 6.03798 7.08568C6.00755 7.18279 6.00735 7.28685 6.0374 7.38407L6.35097 8.41538C6.49234 8.87938 5.9649 9.25276 5.58428 8.95913L4.82847 8.37188C4.74349 8.30575 4.63889 8.26983 4.53122 8.26983C4.42354 8.26983 4.31894 8.30575 4.23397 8.37188L3.47815 8.95732C3.09753 9.25276 2.5719 8.87938 2.71147 8.41538L3.02503 7.38226C3.05468 7.28529 3.05427 7.18161 3.02386 7.08488C2.99345 6.98814 2.93446 6.90288 2.85465 6.84032L2.0064 6.18238C1.63303 5.89238 1.83422 5.28882 2.30365 5.28882H3.30053C3.40619 5.2885 3.50892 5.25411 3.59349 5.19077C3.67806 5.12743 3.73994 5.0385 3.76997 4.9372L4.06359 3.97657ZM4.06359 11.2266C4.09443 11.1266 4.15647 11.0392 4.24063 10.9771C4.32478 10.915 4.42662 10.8815 4.53122 10.8815C4.63581 10.8815 4.73765 10.915 4.8218 10.9771C4.90596 11.0392 4.96801 11.1266 4.99884 11.2266L5.29247 12.1872C5.3559 12.3956 5.54622 12.5388 5.76009 12.5388H6.75878C7.22822 12.5388 7.4294 13.1424 7.05603 13.4324L6.20778 14.0903C6.12762 14.153 6.0684 14.2386 6.03798 14.3357C6.00755 14.4328 6.00735 14.5368 6.0374 14.6341L6.35097 15.6654C6.49234 16.1276 5.9649 16.5028 5.58428 16.2091L4.82847 15.6219C4.74349 15.5557 4.63889 15.5198 4.53122 15.5198C4.42354 15.5198 4.31894 15.5557 4.23397 15.6219L3.47815 16.2073C3.09753 16.5028 2.5719 16.1294 2.71147 15.6654L3.02503 14.6323C3.05468 14.5353 3.05427 14.4316 3.02386 14.3349C2.99345 14.2381 2.93446 14.1529 2.85465 14.0903L2.0064 13.4324C1.63303 13.1424 1.83422 12.5388 2.30365 12.5388H3.30053C3.40619 12.5385 3.50892 12.5041 3.59349 12.4408C3.67806 12.3774 3.73994 12.2885 3.76997 12.1872L4.06359 11.2266ZM4.06359 18.4766C4.09443 18.3766 4.15647 18.2892 4.24063 18.2271C4.32478 18.165 4.42662 18.1315 4.53122 18.1315C4.63581 18.1315 4.73765 18.165 4.8218 18.2271C4.90596 18.2892 4.96801 18.3766 4.99884 18.4766L5.29247 19.4372C5.3559 19.6456 5.54622 19.7888 5.76009 19.7888H6.75878C7.22822 19.7888 7.4294 20.3924 7.05603 20.6824L6.20778 21.3403C6.12762 21.403 6.0684 21.4886 6.03798 21.5857C6.00755 21.6828 6.00735 21.7868 6.0374 21.8841L6.35097 22.9154C6.49234 23.3776 5.9649 23.7528 5.58428 23.4591L4.82847 22.8719C4.74349 22.8057 4.63889 22.7698 4.53122 22.7698C4.42354 22.7698 4.31894 22.8057 4.23397 22.8719L3.47815 23.4573C3.09753 23.7528 2.5719 23.3794 2.71147 22.9154L3.02503 21.8823C3.05468 21.7853 3.05427 21.6816 3.02386 21.5849C2.99345 21.4881 2.93446 21.4029 2.85465 21.3403L2.0064 20.6824C1.63303 20.3924 1.83422 19.7888 2.30365 19.7888H3.30053C3.40619 19.7885 3.50892 19.7541 3.59349 19.6908C3.67806 19.6274 3.73994 19.5385 3.76997 19.4372L4.06359 18.4766Z" fill="#A12C81"/>
</svg>
