<svg width="24" height="24" viewBox="0 0 24 24" fill="none" xmlns="http://www.w3.org/2000/svg">
<g clip-path="url(#clip0_2209_36847)">
<path d="M22 21H2V3H4V19H6V10H10V19H12V13.5H16V19H18V15H22V21Z" fill="#3D0330"/>
<path d="M16.5 0C12.912 0 10 2.912 10 6.5C10 10.088 12.912 13 16.5 13C20.088 13 23 10.088 23 6.5C23 2.912 20.088 0 16.5 0ZM16.5 11.7C13.6335 11.7 11.3 9.3665 11.3 6.5C11.3 3.6335 13.6335 1.3 16.5 1.3C19.3665 1.3 21.7 3.6335 21.7 6.5C21.7 9.3665 19.3665 11.7 16.5 11.7ZM19.4835 3.627L15.2 7.9105L13.5165 6.2335L12.6 7.15L15.2 9.75L20.4 4.55L19.4835 3.627Z" fill="#3D0330"/>
</g>
<defs>
<clipPath id="clip0_2209_36847">
<rect width="24" height="24" fill="white"/>
</clipPath>
</defs>
</svg>
