<svg width="20" height="20" viewBox="0 0 20 20" fill="none" xmlns="http://www.w3.org/2000/svg">
<path d="M11.25 11.875H18.75V13.125H11.25V11.875ZM11.25 14.375H18.75V15.625H11.25V14.375ZM11.25 16.875H16.25V18.125H11.25V16.875Z" fill="#3D0330"/>
<path d="M15.0001 2.5C14.4473 2.50164 13.9108 2.68661 13.4744 3.02592C13.0381 3.36522 12.7266 3.8397 12.5888 4.375H7.50008V2.5H2.50008V7.5H7.50008V5.625H12.5888C12.647 5.84871 12.7365 6.0631 12.8545 6.26188L6.26196 12.8544C5.88092 12.6248 5.44495 12.5023 5.00008 12.5C4.53211 12.4982 4.07303 12.6279 3.67509 12.8742C3.27716 13.1204 2.95633 13.4735 2.74913 13.8931C2.54192 14.3127 2.45666 14.782 2.50303 15.2477C2.5494 15.7134 2.72555 16.1567 3.01143 16.5272C3.29732 16.8977 3.68146 17.1805 4.12015 17.3435C4.55884 17.5065 5.03446 17.543 5.4929 17.449C5.95134 17.355 6.3742 17.1342 6.71335 16.8118C7.0525 16.4893 7.29434 16.0781 7.41133 15.625H10.0001V14.375H7.41133C7.35312 14.1513 7.2637 13.9369 7.14571 13.7381L13.7382 7.14562C14.1192 7.37523 14.5552 7.49767 15.0001 7.5C15.6631 7.5 16.299 7.23661 16.7679 6.76777C17.2367 6.29893 17.5001 5.66304 17.5001 5C17.5001 4.33696 17.2367 3.70107 16.7679 3.23223C16.299 2.76339 15.6631 2.5 15.0001 2.5ZM6.25008 6.25H3.75008V3.75H6.25008V6.25ZM5.00008 16.25C4.75286 16.25 4.51118 16.1767 4.30562 16.0393C4.10006 15.902 3.93984 15.7068 3.84523 15.4784C3.75062 15.2499 3.72587 14.9986 3.7741 14.7561C3.82233 14.5137 3.94138 14.2909 4.1162 14.1161C4.29102 13.9413 4.51374 13.8222 4.75622 13.774C4.9987 13.7258 5.25003 13.7505 5.47844 13.8451C5.70685 13.9398 5.90207 14.1 6.03942 14.3055C6.17677 14.5111 6.25008 14.7528 6.25008 15C6.24975 15.3314 6.11795 15.6492 5.8836 15.8835C5.64925 16.1179 5.3315 16.2497 5.00008 16.25ZM15.0001 6.25C14.7529 6.25 14.5112 6.17669 14.3056 6.03934C14.1001 5.90199 13.9398 5.70676 13.8452 5.47835C13.7506 5.24995 13.7259 4.99861 13.7741 4.75614C13.8223 4.51366 13.9414 4.29093 14.1162 4.11612C14.291 3.9413 14.5137 3.82225 14.7562 3.77402C14.9987 3.72579 15.25 3.75054 15.4784 3.84515C15.7068 3.93976 15.9021 4.09998 16.0394 4.30554C16.1768 4.5111 16.2501 4.75277 16.2501 5C16.2498 5.33142 16.118 5.64917 15.8836 5.88352C15.6493 6.11787 15.3315 6.24967 15.0001 6.25Z" fill="#3D0330"/>
</svg>
