<svg width="24" height="24" viewBox="0 0 24 24" fill="none" xmlns="http://www.w3.org/2000/svg">
<path d="M19.7778 16.4286V10.7333C19.2222 10.8429 18.6667 10.9524 18.1111 10.9524H17.5556V17.5238H6.44444V9.85714C6.44444 6.79048 8.88889 4.38095 12 4.38095C12.1111 2.95714 12.7778 1.75238 13.6667 0.766667C13.3333 0.328571 12.6667 0 12 0C10.7778 0 9.77778 0.985714 9.77778 2.19048V2.51905C6.44444 3.50476 4.22222 6.46191 4.22222 9.85714V16.4286L2 18.619V19.7143H22V18.619L19.7778 16.4286ZM9.77778 20.8095C9.77778 22.0143 10.7778 23 12 23C13.2222 23 14.2222 22.0143 14.2222 20.8095H9.77778ZM22 4.92857C22 7.00952 20.2222 8.7619 18.1111 8.7619C16 8.7619 14.2222 7.00952 14.2222 4.92857C14.2222 2.84762 16 1.09524 18.1111 1.09524C20.2222 1.09524 22 2.84762 22 4.92857Z" fill="#3D0330"/>
</svg>
